<svg xmlns="http://www.w3.org/2000/svg" viewBox="10 11 80 92" width="400" height="460">
  <g fill="#2e4636">
    <ellipse cx="22" cy="42" rx="8.5" ry="14" transform="rotate(-18 22 42)"></ellipse>
    <ellipse cx="41" cy="31" rx="9" ry="16" transform="rotate(-6 41 31)"></ellipse>
    <ellipse cx="59" cy="31" rx="9" ry="16" transform="rotate(6 59 31)"></ellipse>
    <ellipse cx="78" cy="42" rx="8.5" ry="14" transform="rotate(18 78 42)"></ellipse>
    <path d="M50 56 C34 56 23 67 23 79 C23 90 31 99 40 99 C45 99 47 95 50 93 C53 95 55 99 60 99 C69 99 77 90 77 79 C77 67 66 56 50 56 Z"></path>
  </g>
</svg>